# Blender 3.4.1
# www.blender.org
mtllib untitled.mtl
o Cylinder
v 0.013635 0.635653 -2.249481
v 0.020928 0.529234 2.274709
v 0.344062 0.499232 -2.280447
v 0.239820 0.610183 2.251859
v 0.454664 0.402154 -2.300114
v 0.455749 0.324162 2.317379
v 0.575293 0.089343 -2.328577
v 0.604687 0.082518 2.261462
v 0.600911 -0.239153 -2.198849
v 0.577044 -0.202866 2.252618
v 0.439625 -0.568806 -2.273113
v 0.417057 -0.464342 2.249071
v 0.147363 -0.603216 -2.261432
v 0.160097 -0.610485 2.261370
v -0.167010 -0.564114 -2.282958
v -0.140591 -0.649252 2.196135
v -0.409485 -0.533196 -2.305395
v -0.371240 -0.479425 2.273430
v -0.633957 -0.198744 -2.237541
v -0.619934 -0.265621 2.270305
v -0.586806 0.116372 -2.245169
v -0.680395 0.098738 2.187775
v -0.524354 0.368653 -2.225314
v -0.483245 0.344442 2.226654
v -0.215509 0.470157 -2.242034
v -0.291818 0.540140 2.273440
v 0.002588 0.546077 -1.609734
v -0.056094 0.527903 -0.921887
v -0.009420 0.557908 -0.297975
v 0.037503 0.551670 0.310714
v -0.000407 0.577075 0.968855
v -0.036644 0.542137 1.604266
v 0.332235 0.510872 1.475116
v 0.344705 0.541644 1.072368
v 0.259409 0.491083 0.295775
v 0.272724 0.529034 -0.307370
v 0.263472 0.481387 -0.980288
v 0.203533 0.475129 -1.635694
v 0.454521 0.319172 1.514676
v 0.453711 0.350816 1.040877
v 0.525742 0.382063 0.370876
v 0.464207 0.318624 -0.324117
v 0.487334 0.276978 -1.039536
v 0.513052 0.356118 -1.603163
v 0.643765 0.031643 1.653970
v 0.607035 0.062095 1.006702
v 0.517937 0.096869 0.318639
v 0.522713 0.046154 -0.274665
v 0.551409 0.067836 -0.947609
v 0.606068 0.060379 -1.587509
v 0.583886 -0.259568 1.633117
v 0.530414 -0.185263 1.031418
v 0.572386 -0.246918 0.267090
v 0.585548 -0.206613 -0.333766
v 0.520503 -0.110101 -0.976081
v 0.505910 -0.255036 -1.557562
v 0.392522 -0.452774 1.612413
v 0.337980 -0.416764 0.974160
v 0.375840 -0.426113 0.320412
v 0.358358 -0.450856 -0.372114
v 0.366250 -0.465142 -1.000882
v 0.421086 -0.379566 -1.545729
v 0.193112 -0.569982 1.600374
v 0.170689 -0.558364 0.903340
v 0.203222 -0.585436 0.341162
v 0.092522 -0.513058 -0.333538
v 0.137402 -0.521068 -0.977415
v 0.162266 -0.480745 -1.631197
v -0.125767 -0.537136 1.640913
v -0.093572 -0.506864 0.963964
v -0.098094 -0.516448 0.288972
v -0.133277 -0.599737 -0.393241
v -0.099447 -0.520869 -0.965513
v -0.121816 -0.566159 -1.606097
v -0.420079 -0.450153 1.640350
v -0.389821 -0.361143 0.965682
v -0.428520 -0.424932 0.320558
v -0.403374 -0.386073 -0.252940
v -0.409125 -0.449237 -0.958421
v -0.354013 -0.369927 -1.597320
v -0.533540 -0.277161 1.583377
v -0.536849 -0.207676 0.974470
v -0.448337 -0.164208 0.344533
v -0.516712 -0.194754 -0.321163
v -0.554789 -0.227290 -0.999463
v -0.593714 -0.235444 -1.602144
v -0.580757 0.100998 1.577808
v -0.510203 -0.005069 0.978740
v -0.556051 0.045874 0.334802
v -0.522361 0.098976 -0.315022
v -0.562814 0.058730 -0.963529
v -0.520940 0.150610 -1.627713
v -0.480280 0.350383 1.619857
v -0.498883 0.330187 0.952666
v -0.467835 0.351035 0.318708
v -0.463420 0.291547 -0.315176
v -0.452516 0.246835 -0.980235
v -0.474240 0.280649 -1.625586
v -0.291105 0.493723 1.655645
v -0.260691 0.529310 0.876074
v -0.289798 0.457076 0.355830
v -0.209090 0.458268 -0.284748
v -0.275013 0.479272 -0.963881
v -0.199958 0.509849 -1.632324
v 0.413075 0.590167 1.427790
v 0.438979 0.630484 1.166106
v 0.498888 0.480813 1.487498
v 0.512457 0.512994 1.190187
vn -0.0999 0.9931 -0.0617
vn 0.8152 0.5791 0.0088
vn 0.8425 0.5386 0.0013
vn 0.9870 -0.1524 0.0503
vn 0.7910 -0.6118 0.0108
vn 0.4995 -0.8657 -0.0315
vn 0.0144 -0.9922 -0.1239
vn -0.4485 -0.8890 -0.0929
vn -0.7273 -0.6856 -0.0299
vn -0.9776 -0.1583 -0.1391
vn -0.8501 0.5222 -0.0682
vn -0.0317 -0.0167 0.9994
vn -0.6617 0.7493 -0.0268
vn -0.0680 0.9974 -0.0229
vn -0.0222 0.0129 -0.9997
vn -0.4241 0.9048 0.0377
vn -0.1996 0.9797 0.0155
vn -0.3352 0.9419 0.0225
vn -0.3462 0.9382 -0.0038
vn -0.2284 0.9701 -0.0821
vn -0.1866 0.9816 0.0401
vn -0.4905 0.8693 0.0614
vn -0.7147 0.6994 0.0053
vn -0.6796 0.7335 0.0149
vn -0.5238 0.8486 -0.0738
vn -0.5931 0.8043 -0.0368
vn -0.6251 0.7805 0.0032
vn -0.9580 0.2676 0.1031
vn -0.8959 0.4434 0.0288
vn -0.9138 0.4060 -0.0057
vn -0.9588 0.2825 -0.0299
vn -0.9877 0.1548 0.0201
vn -0.9802 0.1890 -0.0591
vn -0.9816 0.1718 0.0835
vn -0.9954 0.0958 0.0040
vn -0.9978 -0.0279 0.0606
vn -0.9754 -0.2193 0.0220
vn -0.9800 -0.1931 -0.0471
vn -0.9979 -0.0355 -0.0545
vn -0.6980 -0.7066 0.1163
vn -0.6748 -0.7362 -0.0510
vn -0.8531 -0.5180 0.0628
vn -0.9596 -0.2796 0.0316
vn -0.9280 -0.3714 -0.0303
vn -0.7714 -0.6294 -0.0939
vn -0.4309 -0.8922 0.1352
vn -0.4437 -0.8955 -0.0352
vn -0.4457 -0.8950 -0.0208
vn -0.4447 -0.8950 0.0352
vn -0.3504 -0.9345 0.0634
vn -0.3650 -0.9258 -0.0986
vn 0.0774 -0.9931 0.0879
vn 0.1617 -0.9868 0.0041
vn 0.1880 -0.9811 -0.0450
vn 0.0326 -0.9995 0.0045
vn -0.2080 -0.9778 0.0243
vn -0.1484 -0.9884 -0.0312
vn 0.2053 -0.9538 0.2195
vn 0.3147 -0.9459 -0.0784
vn 0.2354 -0.9715 0.0268
vn 0.4419 -0.8941 -0.0726
vn 0.6566 -0.7518 0.0605
vn 0.5849 -0.8087 -0.0626
vn 0.8636 -0.4863 0.1332
vn 0.8930 -0.4467 0.0554
vn 0.8448 -0.5301 -0.0723
vn 0.7066 -0.7075 -0.0109
vn 0.7236 -0.6861 0.0751
vn 0.7474 -0.6528 -0.1232
vn 0.9936 -0.1044 0.0428
vn 0.9646 -0.2561 0.0636
vn 0.9967 0.0781 -0.0205
vn 0.9816 0.1906 0.0131
vn 0.9988 -0.0360 -0.0317
vn 0.9652 -0.2453 -0.0903
vn 0.9425 0.3317 -0.0411
vn 0.9466 0.3119 0.0818
vn 0.9663 0.2554 0.0324
vn 0.9945 0.0907 -0.0519
vn 0.9693 0.2458 -0.0002
vn 0.8596 0.5109 -0.0005
vn 0.4543 0.8877 0.0742
vn 0.5195 0.8537 0.0365
vn 0.7026 0.7106 -0.0387
vn 0.5750 0.8173 -0.0374
vn 0.6252 0.7803 -0.0162
vn -0.0161 0.3030 0.9528
vn 0.3723 0.9196 0.1253
vn 0.2214 0.9751 0.0084
vn 0.1169 0.9911 -0.0644
vn 0.1761 0.9839 0.0310
vn 0.1755 0.9828 -0.0578
vn 0.0952 0.9932 0.0673
vn 0.7871 0.6021 0.1337
vn 0.9538 -0.3003 -0.0091
vn -0.6971 0.7160 0.0363
vn 0.5767 0.3590 -0.7338
vt 0.415333 0.870504
vt 0.706706 0.813980
vt 0.311520 0.765914
vt 0.706706 0.813980
vt 0.441142 0.864143
vt 0.706706 0.813980
vt 0.706706 0.813980
vt 0.289747 0.771281
vt 0.461038 0.846516
vt 0.706706 0.813980
vt 0.706706 0.813980
vt 0.272962 0.786151
vt 0.470463 0.821663
vt 0.706706 0.813980
vt 0.706706 0.813980
vt 0.265010 0.807118
vt 0.467259 0.795276
vt 0.706706 0.813980
vt 0.706706 0.813980
vt 0.267713 0.829379
vt 0.452160 0.773401
vt 0.706706 0.813980
vt 0.706706 0.813980
vt 0.280451 0.847834
vt 0.428624 0.761048
vt 0.706706 0.813980
vt 0.706706 0.813980
vt 0.300307 0.858255
vt 0.402043 0.761048
vt 0.706706 0.813980
vt 0.706706 0.813980
vt 0.322732 0.858255
vt 0.378507 0.773401
vt 0.706706 0.813980
vt 0.706706 0.813980
vt 0.342588 0.847834
vt 0.363408 0.795276
vt 0.706706 0.813980
vt 0.706706 0.813980
vt 0.355326 0.829379
vt 0.360204 0.821663
vt 0.706706 0.813980
vt 0.706706 0.813980
vt 0.358029 0.807118
vt 0.369629 0.846516
vt 0.706706 0.813980
vt 0.350077 0.786151
vt 0.706706 0.813980
vt 0.389525 0.864143
vt 0.706706 0.813980
vt 0.333292 0.771281
vt 0.706706 0.813980
vt 0.706706 0.813980
vt 0.706706 0.813980
vt 0.706706 0.813980
vt 0.706706 0.813980
vt 0.706706 0.813980
vt 0.706706 0.813980
vt 0.706706 0.813980
vt 0.706706 0.813980
vt 0.706706 0.813980
vt 0.706706 0.813980
vt 0.706706 0.813980
vt 0.706706 0.813980
vt 0.706706 0.813980
vt 0.706706 0.813980
vt 0.706706 0.813980
vt 0.706706 0.813980
vt 0.706706 0.813980
vt 0.706706 0.813980
vt 0.706706 0.813980
vt 0.706706 0.813980
vt 0.706706 0.813980
vt 0.706706 0.813980
vt 0.706706 0.813980
vt 0.706706 0.813980
vt 0.706706 0.813980
vt 0.706706 0.813980
vt 0.706706 0.813980
vt 0.706706 0.813980
vt 0.706706 0.813980
vt 0.706706 0.813980
vt 0.706706 0.813980
vt 0.706706 0.813980
vt 0.706706 0.813980
vt 0.706706 0.813980
vt 0.706706 0.813980
vt 0.706706 0.813980
vt 0.706706 0.813980
vt 0.706706 0.813980
vt 0.706706 0.813980
vt 0.706706 0.813980
vt 0.706706 0.813980
vt 0.706706 0.813980
vt 0.706706 0.813980
vt 0.706706 0.813980
vt 0.706706 0.813980
vt 0.706706 0.813980
vt 0.706706 0.813980
vt 0.706706 0.813980
vt 0.706706 0.813980
vt 0.706706 0.813980
vt 0.706706 0.813980
vt 0.706706 0.813980
vt 0.706706 0.813980
vt 0.706706 0.813980
vt 0.706706 0.813980
vt 0.706706 0.813980
vt 0.706706 0.813980
vt 0.706706 0.813980
vt 0.706706 0.813980
vt 0.706706 0.813980
vt 0.706706 0.813980
vt 0.706706 0.813980
vt 0.706706 0.813980
vt 0.706706 0.813980
vt 0.706706 0.813980
vt 0.706706 0.813980
vt 0.706706 0.813980
vt 0.706706 0.813980
vt 0.706706 0.813980
vt 0.706706 0.813980
vt 0.706706 0.813980
vt 0.706706 0.813980
vt 0.706706 0.813980
vt 0.706706 0.813980
vt 0.706706 0.813980
vt 0.706706 0.813980
vt 0.706706 0.813980
vt 0.706706 0.813980
vt 0.706706 0.813980
vt 0.706706 0.813980
vt 0.706706 0.813980
vt 0.706706 0.813980
s 0
usemtl Material.001
f 32/58/1 2/4/1 4/7/1 33/59/1
f 33/59/2 4/7/2 6/11/2 39/65/2
f 39/65/3 6/11/3 8/15/3 45/71/3
f 45/71/4 8/15/4 10/19/4 51/77/4
f 51/77/5 10/19/5 12/23/5 57/83/5
f 57/83/6 12/23/6 14/27/6 63/89/6
f 63/89/7 14/27/7 16/31/7 69/95/7
f 69/95/8 16/31/8 18/35/8 75/101/8
f 75/101/9 18/35/9 20/39/9 81/107/9
f 81/107/10 20/39/10 22/43/10 87/113/10
f 87/113/11 22/43/11 24/48/11 93/119/11
f 4/8/12 2/3/12 26/51/12 24/47/12 22/44/12 20/40/12 18/36/12 16/32/12 14/28/12 12/24/12 10/20/12 8/16/12 6/12/12
f 93/119/13 24/48/13 26/52/13 99/125/13
f 99/125/14 26/52/14 2/4/14 32/58/14
f 1/1/15 3/5/15 5/9/15 7/13/15 9/17/15 11/21/15 13/25/15 15/29/15 17/33/15 19/37/15 21/41/15 23/45/15 25/49/15
f 25/50/16 104/130/16 27/53/16 1/2/16
f 104/130/17 103/129/17 28/54/17 27/53/17
f 103/129/18 102/128/18 29/55/18 28/54/18
f 102/128/19 101/127/19 30/56/19 29/55/19
f 101/127/20 100/126/20 31/57/20 30/56/20
f 100/126/21 99/125/21 32/58/21 31/57/21
f 23/46/22 98/124/22 104/130/22 25/50/22
f 98/124/23 97/123/23 103/129/23 104/130/23
f 97/123/24 96/122/24 102/128/24 103/129/24
f 96/122/25 95/121/25 101/127/25 102/128/25
f 95/121/26 94/120/26 100/126/26 101/127/26
f 94/120/27 93/119/27 99/125/27 100/126/27
f 21/42/28 92/118/28 98/124/28 23/46/28
f 92/118/29 91/117/29 97/123/29 98/124/29
f 91/117/30 90/116/30 96/122/30 97/123/30
f 90/116/31 89/115/31 95/121/31 96/122/31
f 89/115/32 88/114/32 94/120/32 95/121/32
f 88/114/33 87/113/33 93/119/33 94/120/33
f 19/38/34 86/112/34 92/118/34 21/42/34
f 86/112/35 85/111/35 91/117/35 92/118/35
f 85/111/36 84/110/36 90/116/36 91/117/36
f 84/110/37 83/109/37 89/115/37 90/116/37
f 83/109/38 82/108/38 88/114/38 89/115/38
f 82/108/39 81/107/39 87/113/39 88/114/39
f 17/34/40 80/106/40 86/112/40 19/38/40
f 80/106/41 79/105/41 85/111/41 86/112/41
f 79/105/42 78/104/42 84/110/42 85/111/42
f 78/104/43 77/103/43 83/109/43 84/110/43
f 77/103/44 76/102/44 82/108/44 83/109/44
f 76/102/45 75/101/45 81/107/45 82/108/45
f 15/30/46 74/100/46 80/106/46 17/34/46
f 74/100/47 73/99/47 79/105/47 80/106/47
f 73/99/48 72/98/48 78/104/48 79/105/48
f 72/98/49 71/97/49 77/103/49 78/104/49
f 71/97/50 70/96/50 76/102/50 77/103/50
f 70/96/51 69/95/51 75/101/51 76/102/51
f 13/26/52 68/94/52 74/100/52 15/30/52
f 68/94/53 67/93/53 73/99/53 74/100/53
f 67/93/54 66/92/54 72/98/54 73/99/54
f 66/92/55 65/91/55 71/97/55 72/98/55
f 65/91/56 64/90/56 70/96/56 71/97/56
f 64/90/57 63/89/57 69/95/57 70/96/57
f 11/22/58 62/88/58 68/94/58 13/26/58
f 62/88/59 61/87/59 67/93/59 68/94/59
f 61/87/60 60/86/60 66/92/60 67/93/60
f 60/86/61 59/85/61 65/91/61 66/92/61
f 59/85/62 58/84/62 64/90/62 65/91/62
f 58/84/63 57/83/63 63/89/63 64/90/63
f 9/18/64 56/82/64 62/88/64 11/22/64
f 56/82/65 55/81/65 61/87/65 62/88/65
f 55/81/66 54/80/66 60/86/66 61/87/66
f 54/80/67 53/79/67 59/85/67 60/86/67
f 53/79/68 52/78/68 58/84/68 59/85/68
f 52/78/69 51/77/69 57/83/69 58/84/69
f 7/14/70 50/76/70 56/82/70 9/18/70
f 50/76/71 49/75/71 55/81/71 56/82/71
f 49/75/72 48/74/72 54/80/72 55/81/72
f 48/74/73 47/73/73 53/79/73 54/80/73
f 47/73/74 46/72/74 52/78/74 53/79/74
f 46/72/75 45/71/75 51/77/75 52/78/75
f 5/10/76 44/70/76 50/76/76 7/14/76
f 44/70/77 43/69/77 49/75/77 50/76/77
f 43/69/78 42/68/78 48/74/78 49/75/78
f 42/68/79 41/67/79 47/73/79 48/74/79
f 41/67/80 40/66/80 46/72/80 47/73/80
f 40/66/81 39/65/81 45/71/81 46/72/81
f 3/6/82 38/64/82 44/70/82 5/10/82
f 38/64/83 37/63/83 43/69/83 44/70/83
f 37/63/84 36/62/84 42/68/84 43/69/84
f 36/62/85 35/61/85 41/67/85 42/68/85
f 35/61/86 34/60/86 40/66/86 41/67/86
f 33/59/87 39/65/87 107/133/87 105/131/87
f 1/2/88 27/53/88 38/64/88 3/6/88
f 27/53/89 28/54/89 37/63/89 38/64/89
f 28/54/90 29/55/90 36/62/90 37/63/90
f 29/55/91 30/56/91 35/61/91 36/62/91
f 30/56/92 31/57/92 34/60/92 35/61/92
f 31/57/93 32/58/93 33/59/93 34/60/93
f 106/132/94 105/131/94 107/133/94 108/134/94
f 39/65/95 40/66/95 108/134/95 107/133/95
f 34/60/96 33/59/96 105/131/96 106/132/96
f 40/66/97 34/60/97 106/132/97 108/134/97
